<svg xmlns="http://www.w3.org/2000/svg" viewBox="0 0 64 64">
  <defs>
    <linearGradient id="bg" x1="0%" y1="0%" x2="100%" y2="100%">
      <stop offset="0%" stop-color="#3b1f0b" />
      <stop offset="100%" stop-color="#d97706" />
    </linearGradient>
  </defs>
  <rect width="64" height="64" rx="14" fill="url(#bg)" />
  <path d="M16 18h14c8 0 13 4 13 10 0 4-2 7-6 8 4 1 7 4 7 9 0 7-6 11-15 11H16V18Zm12 15c4 0 6-1 6-4s-2-4-6-4h-4v8h4Zm1 16c4 0 7-2 7-5s-3-5-7-5h-5v10h5Z" fill="#fff" />
  <path d="M45 14h7l-5 12h-5l3-12Z" fill="#fde68a" />
</svg>
